<svg width="958" height="372" viewBox="0 0 958 372" fill="none" xmlns="http://www.w3.org/2000/svg">
<rect x="2" y="2" width="954" height="368" stroke="#1C1917" stroke-width="4"/>
<path d="M138.358 237.585C137.789 232.271 135.391 228.133 131.165 225.172C126.979 222.21 121.533 220.73 114.828 220.73C110.114 220.73 106.07 221.44 102.697 222.859C99.324 224.279 96.7435 226.206 94.9553 228.64C93.1672 231.074 92.2528 233.853 92.2122 236.976C92.2122 239.573 92.8015 241.824 93.98 243.731C95.1992 245.637 96.8451 247.26 98.9176 248.599C100.99 249.897 103.286 250.992 105.806 251.885C108.326 252.777 110.866 253.528 113.426 254.136L125.13 257.057C129.844 258.152 134.375 259.633 138.724 261.499C143.113 263.365 147.034 265.718 150.489 268.557C153.984 271.397 156.747 274.825 158.779 278.841C160.811 282.857 161.827 287.563 161.827 292.958C161.827 300.26 159.958 306.69 156.219 312.247C152.48 317.764 147.075 322.085 140.004 325.208C132.973 328.291 124.459 329.833 114.462 329.833C104.749 329.833 96.3167 328.332 89.1643 325.33C82.0524 322.328 76.4849 317.947 72.4616 312.186C68.479 306.426 66.3251 299.408 66 291.133H88.2499C88.575 295.473 89.9161 299.084 92.2732 301.964C94.6302 304.844 97.6985 306.994 101.478 308.414C105.298 309.834 109.565 310.544 114.279 310.544C119.197 310.544 123.504 309.813 127.202 308.353C130.941 306.852 133.867 304.783 135.98 302.146C138.094 299.469 139.171 296.345 139.211 292.775C139.171 289.53 138.216 286.853 136.346 284.743C134.477 282.593 131.856 280.808 128.483 279.389C125.15 277.928 121.249 276.63 116.779 275.494L102.575 271.843C92.2935 269.206 84.1657 265.211 78.1917 259.856C72.2584 254.461 69.2918 247.301 69.2918 238.376C69.2918 231.033 71.2831 224.604 75.2657 219.087C79.289 213.57 84.7549 209.29 91.6636 206.247C98.5722 203.164 106.395 201.623 115.133 201.623C123.992 201.623 131.754 203.164 138.419 206.247C145.124 209.29 150.387 213.529 154.207 218.965C158.027 224.36 159.998 230.567 160.12 237.585H138.358Z" fill="#1C1917"/>
<path d="M223.7 235.07V252.108H169.873V235.07H223.7ZM183.162 212.677H205.229V300.422C205.229 303.384 205.676 305.656 206.571 307.238C207.505 308.779 208.724 309.834 210.228 310.402C211.732 310.97 213.398 311.254 215.227 311.254C216.608 311.254 217.868 311.152 219.006 310.949C220.185 310.747 221.079 310.564 221.688 310.402L225.407 327.622C224.228 328.028 222.542 328.474 220.347 328.961C218.193 329.448 215.552 329.732 212.423 329.813C206.896 329.975 201.917 329.143 197.488 327.318C193.058 325.452 189.543 322.572 186.942 318.677C184.382 314.783 183.122 309.915 183.162 304.073V212.677Z" fill="#1C1917"/>
<path d="M264.786 329.833C258.853 329.833 253.509 328.778 248.754 326.669C244.04 324.519 240.301 321.355 237.538 317.176C234.815 312.998 233.453 307.846 233.453 301.72C233.453 296.447 234.429 292.086 236.379 288.638C238.33 285.19 240.992 282.431 244.365 280.362C247.738 278.293 251.538 276.732 255.764 275.677C260.031 274.582 264.441 273.791 268.992 273.304C274.478 272.736 278.928 272.229 282.342 271.783C285.756 271.296 288.235 270.566 289.779 269.592C291.364 268.578 292.156 267.016 292.156 264.907V264.541C292.156 259.957 290.795 256.408 288.072 253.893C285.349 251.378 281.428 250.12 276.307 250.12C270.902 250.12 266.615 251.297 263.445 253.649C260.316 256.002 257.809 260.485 256.712 263.69C255.615 266.894 253.782 273.726 244.548 271.783C240.515 270.934 234.411 266.367 236.501 259.065C238.591 251.763 240.809 248.639 244.548 244.826C248.287 240.972 252.858 238.092 258.263 236.186C263.668 234.238 269.642 233.265 276.185 233.265C280.696 233.265 285.187 233.792 289.657 234.847C294.127 235.902 298.212 237.646 301.91 240.08C305.608 242.473 308.575 245.739 310.81 249.877C313.086 254.014 314.223 259.187 314.223 265.393V327.947H293.01V315.107H292.278C290.937 317.704 289.048 320.138 286.609 322.409C284.212 324.64 281.184 326.446 277.526 327.825C273.91 329.164 269.663 329.833 264.786 329.833ZM270.516 313.647C274.946 313.647 278.786 312.775 282.037 311.03C285.288 309.246 287.788 306.893 289.535 303.972C291.323 301.051 292.217 297.867 292.217 294.419V283.405C291.527 283.973 290.348 284.5 288.682 284.987C287.056 285.474 285.227 285.9 283.196 286.265C281.164 286.63 279.152 286.954 277.161 287.238C275.169 287.522 273.442 287.766 271.979 287.968C268.687 288.415 265.741 289.145 263.14 290.159C260.539 291.173 258.487 292.593 256.983 294.419C255.48 296.203 254.728 298.516 254.728 301.355C254.728 305.412 256.211 308.475 259.178 310.544C262.144 312.613 265.924 313.647 270.516 313.647Z" fill="#1C1917"/>
<path d="M344.337 275.068V329.833H322.27V236.368H343.362V252.25H344.459C346.613 247.017 350.047 242.859 354.761 239.775C359.516 236.692 365.388 235.151 372.378 235.151C378.84 235.151 384.468 236.53 389.264 239.289C394.1 242.047 397.838 246.043 400.48 251.276C403.162 256.509 404.483 262.858 404.442 270.322V329.833H382.375V273.73C382.375 267.482 380.75 262.594 377.499 259.065C374.288 255.536 369.838 253.771 364.149 253.771C360.288 253.771 356.854 254.623 353.847 256.327C350.88 257.99 348.543 260.403 346.836 263.568C345.17 266.732 344.337 270.565 344.337 275.068Z" fill="#1C1917"/>
<path d="M451.076 329.833C443.721 329.833 437.137 327.947 431.326 324.174C425.514 320.401 420.922 314.925 417.549 307.744C414.176 300.564 412.49 291.842 412.49 281.579C412.49 271.194 414.196 262.432 417.61 255.292C421.064 248.112 425.718 242.696 431.57 239.045C437.422 235.354 443.944 233.508 451.137 233.508C456.624 233.508 461.135 234.441 464.67 236.307C468.206 238.133 471.01 240.343 473.082 242.94C475.155 245.495 476.76 247.909 477.898 250.181H478.813V203.57H500.941V328.19H479.239V313.464H477.898C476.76 315.736 475.114 318.15 472.961 320.705C470.807 323.221 467.962 325.371 464.426 327.155C460.891 328.94 456.441 329.833 451.076 329.833ZM457.233 311.761C461.907 311.761 465.889 310.503 469.181 307.988C472.473 305.432 474.972 301.883 476.679 297.339C478.386 292.796 479.239 287.502 479.239 281.458C479.239 275.413 478.386 270.16 476.679 265.697C475.013 261.235 472.534 257.767 469.242 255.292C465.991 252.818 461.988 251.58 457.233 251.58C452.316 251.58 448.211 252.858 444.92 255.414C441.628 257.97 439.149 261.499 437.483 266.002C435.816 270.505 434.983 275.657 434.983 281.458C434.983 287.299 435.816 292.512 437.483 297.096C439.189 301.639 441.689 305.229 444.981 307.866C448.313 310.462 452.397 311.761 457.233 311.761Z" fill="#1C1917"/>
<path d="M540.32 329.833C534.386 329.833 529.042 328.778 524.288 326.669C519.574 324.519 515.835 321.355 513.071 317.176C510.348 312.998 508.987 307.846 508.987 301.72C508.987 296.447 509.962 292.086 511.913 288.638C513.864 285.19 516.526 282.431 519.899 280.362C523.272 278.293 527.071 276.732 531.298 275.677C535.565 274.582 539.974 273.791 544.526 273.304C550.012 272.736 554.462 272.229 557.876 271.783C561.29 271.296 563.769 270.566 565.313 269.592C566.898 268.578 567.69 267.016 567.69 264.907V264.541C567.69 259.957 566.329 256.408 563.606 253.893C560.883 251.378 556.961 250.12 551.841 250.12C546.436 250.12 542.149 251.297 538.979 253.649C535.849 256.002 533.343 260.485 532.246 263.69C531.149 266.894 529.316 273.726 520.082 271.783C516.049 270.934 509.945 266.367 512.035 259.065C514.125 251.763 516.343 248.639 520.082 244.826C523.82 240.972 528.392 238.092 533.797 236.186C539.202 234.238 545.176 233.265 551.719 233.265C556.23 233.265 560.721 233.792 565.191 234.847C569.661 235.902 573.745 237.646 577.444 240.08C581.142 242.473 584.108 245.739 586.344 249.877C588.619 254.014 589.757 259.187 589.757 265.393V327.947H568.544V315.107H567.812C566.471 317.704 564.581 320.138 562.143 322.409C559.745 324.64 556.718 326.446 553.06 327.825C549.443 329.164 545.196 329.833 540.32 329.833ZM546.05 313.647C550.48 313.647 554.32 312.775 557.571 311.03C560.822 309.246 563.322 306.893 565.069 303.972C566.857 301.051 567.751 297.867 567.751 294.419V283.405C567.06 283.973 565.882 284.5 564.216 284.987C562.59 285.474 560.761 285.9 558.729 286.265C556.697 286.63 554.686 286.954 552.694 287.238C550.703 287.522 548.976 287.766 547.513 287.968C544.221 288.415 541.275 289.145 538.674 290.159C536.073 291.173 534.021 292.593 532.517 294.419C531.013 296.203 530.262 298.516 530.262 301.355C530.262 305.412 531.745 308.475 534.712 310.544C537.678 312.613 541.458 313.647 546.05 313.647Z" fill="#1C1917"/>
<path d="M597.804 329.833V236.368H619.2V251.945H620.176C621.883 246.55 624.809 242.392 628.954 239.471C633.14 236.51 637.915 235.029 643.279 235.029C644.498 235.029 645.86 235.09 647.363 235.212C648.908 235.293 650.188 235.435 651.204 235.638V255.901C650.269 255.576 648.786 255.292 646.754 255.049C644.762 254.765 642.832 254.623 640.963 254.623C636.939 254.623 633.322 255.495 630.112 257.239C626.942 258.943 624.443 261.316 622.614 264.359C620.785 267.401 619.871 270.91 619.871 274.886V329.833H597.804Z" fill="#1C1917"/>
<path d="M695.837 329.833C688.481 329.833 681.898 327.947 676.086 324.174C670.275 320.401 665.683 314.925 662.31 307.744C658.937 300.564 657.25 291.842 657.25 281.579C657.25 271.194 658.957 262.432 662.371 255.292C665.825 248.112 670.478 242.696 676.33 239.045C682.182 235.354 688.705 233.508 695.898 233.508C701.384 233.508 705.895 234.441 709.431 236.307C712.966 238.133 715.77 240.343 717.843 242.94C719.916 245.495 721.521 247.909 722.659 250.181H723.573V203.57H745.701V328.19H724V313.464H722.659C721.521 315.736 719.875 318.15 717.721 320.705C715.567 323.221 712.722 325.371 709.187 327.155C705.651 328.94 701.201 329.833 695.837 329.833ZM701.994 311.761C706.667 311.761 710.65 310.503 713.942 307.988C717.233 305.432 719.733 301.883 721.44 297.339C723.146 292.796 724 287.502 724 281.458C724 275.413 723.146 270.16 721.44 265.697C719.773 261.235 717.294 257.767 714.003 255.292C710.751 252.818 706.749 251.58 701.994 251.58C697.076 251.58 692.972 252.858 689.68 255.414C686.388 257.97 683.909 261.499 682.243 266.002C680.577 270.505 679.744 275.657 679.744 281.458C679.744 287.299 680.577 292.512 682.243 297.096C683.95 301.639 686.449 305.229 689.741 307.866C693.073 310.462 697.158 311.761 701.994 311.761Z" fill="#1C1917"/>
<path d="M833.896 259.247L813.78 261.438C813.211 259.41 812.216 257.503 810.793 255.718C809.411 253.933 807.542 252.493 805.185 251.398C802.828 250.303 799.942 249.755 796.529 249.755C791.937 249.755 788.076 250.749 784.947 252.737C781.858 254.724 780.334 257.3 780.375 260.464C780.334 263.182 781.33 265.393 783.362 267.097C785.434 268.801 788.848 270.2 793.603 271.296L809.574 274.703C818.433 276.61 825.017 279.632 829.325 283.77C833.673 287.908 835.867 293.323 835.908 300.017C835.867 305.899 834.14 311.091 830.727 315.594C827.354 320.056 822.66 323.545 816.645 326.06C810.631 328.575 803.722 329.833 795.919 329.833C784.459 329.833 775.234 327.439 768.244 322.653C761.254 317.825 757.089 311.112 755.748 302.511L777.266 300.443C778.241 304.661 780.314 307.846 783.484 309.996C786.654 312.146 790.778 313.221 795.858 313.221C801.101 313.221 805.307 312.146 808.477 309.996C811.687 307.846 813.292 305.189 813.292 302.025C813.292 299.347 812.256 297.136 810.184 295.392C808.152 293.648 804.982 292.309 800.674 291.376L784.703 288.029C775.722 286.163 769.077 283.019 764.769 278.598C760.462 274.135 758.328 268.497 758.369 261.681C758.328 255.921 759.893 250.931 763.063 246.712C766.273 242.453 770.723 239.167 776.412 236.855C782.143 234.502 788.746 233.326 796.224 233.326C807.197 233.326 815.832 235.658 822.131 240.323C828.471 244.988 832.393 251.296 833.896 259.247Z" fill="#1C1917"/>
<path d="M891.908 309.542C891.908 320.588 882.954 329.542 871.908 329.542C860.862 329.542 851.908 320.588 851.908 309.542C851.908 298.497 860.862 289.542 871.908 289.542C882.954 289.542 891.908 298.497 891.908 309.542Z" fill="#D3CACD"/>
<path d="M331.004 45.432C331.556 45.432 332.004 45.8797 332.004 46.432V169.097C332.004 169.649 331.556 170.097 331.004 170.097H310.929C310.376 170.097 309.929 169.649 309.929 169.097V46.432C309.929 45.8797 310.376 45.432 310.929 45.432H331.004Z" fill="#1C1917"/>
<path d="M274.644 170.383C274.092 170.383 273.644 169.936 273.644 169.383V82.215C273.644 81.4868 274.399 80.9918 275.075 81.2623C277.197 82.1113 281.267 83.5615 284.441 83.6188C287.865 83.6806 292.382 82.1205 294.647 81.2407C295.321 80.9787 296.069 81.4725 296.069 82.1957V169.383C296.069 169.936 295.621 170.383 295.069 170.383H274.644Z" fill="#1C1917"/>
<path fill-rule="evenodd" clip-rule="evenodd" d="M283.238 43.5567C283.459 43.0443 284.045 42.8132 284.468 43.1774C290.381 48.2695 302.321 79.6832 285.472 79.6832C268.07 79.6832 274.875 62.9299 283.238 43.5567ZM281.408 74.8946C280.069 72.8266 276.758 70.4357 278.15 62.3884C276.45 68.5157 276.886 76.6195 280.966 76.6195C282.524 76.6195 282.235 76.1726 281.408 74.8946Z" fill="#D3CACD"/>
<path d="M210.674 171.984C204.738 171.984 199.392 170.929 194.636 168.819C189.92 166.668 186.18 163.503 183.415 159.323C180.691 155.143 179.329 149.989 179.329 143.861C179.329 138.586 180.305 134.223 182.257 130.774C184.208 127.325 186.871 124.565 190.245 122.495C193.619 120.426 197.42 118.863 201.648 117.808C205.917 116.713 210.328 115.921 214.881 115.434C220.369 114.866 224.821 114.359 228.236 113.913C231.651 113.426 234.131 112.695 235.676 111.721C237.261 110.707 238.054 109.144 238.054 107.034V106.669C238.054 102.083 236.692 98.5324 233.968 96.0163C231.244 93.5003 227.321 92.2423 222.199 92.2423C216.792 92.2423 212.503 93.4192 209.332 95.7729C206.202 98.1266 203.694 102.611 202.597 105.817C201.499 109.023 199.666 115.856 190.428 113.913C186.394 113.064 179.939 109.712 182.378 101.19C184.818 92.6686 186.688 90.7611 190.428 86.9465C194.168 83.0913 198.742 80.21 204.149 78.3027C209.556 76.3548 215.532 75.3809 222.077 75.3809C226.589 75.3809 231.082 75.9084 235.554 76.9635C240.026 78.0187 244.111 79.7636 247.811 82.1985C251.51 84.5928 254.478 87.8596 256.714 91.9988C258.991 96.1381 260.129 101.312 260.129 107.521V170.097H238.908V157.253H238.176C236.834 159.85 234.944 162.285 232.505 164.558C230.106 166.79 227.077 168.596 223.418 169.975C219.8 171.314 215.552 171.984 210.674 171.984ZM216.406 155.792C220.837 155.792 224.679 154.92 227.931 153.175C231.183 151.389 233.684 149.035 235.432 146.114C237.22 143.192 238.115 140.006 238.115 136.557V125.539C237.424 126.107 236.245 126.635 234.578 127.122C232.952 127.609 231.122 128.035 229.09 128.4C227.057 128.765 225.045 129.09 223.053 129.374C221.061 129.658 219.333 129.901 217.869 130.104C214.576 130.551 211.629 131.281 209.027 132.296C206.425 133.31 204.372 134.731 202.868 136.557C201.364 138.342 200.612 140.655 200.612 143.496C200.612 147.554 202.096 150.618 205.063 152.688C208.031 154.757 211.812 155.792 216.406 155.792Z" fill="#1C1917"/>
<path d="M167.631 45.432C168.183 45.432 168.631 45.8797 168.631 46.432V169.097C168.631 169.649 168.183 170.097 167.631 170.097H149.031C148.703 170.097 148.395 169.936 148.209 169.667L89.8634 85.474C89.7363 85.2906 89.5274 85.1811 89.3042 85.1811C88.9285 85.1811 88.6238 85.4858 88.6238 85.8615V169.097C88.6238 169.649 88.1761 170.097 87.6238 170.097H67C66.4477 170.097 66 169.649 66 169.097V46.432C66 45.8797 66.4477 45.432 67 45.432H85.7214C86.0497 45.432 86.357 45.5931 86.5438 45.8631L144.816 130.098C144.951 130.293 145.172 130.409 145.408 130.409C145.806 130.409 146.129 130.086 146.129 129.689V46.432C146.129 45.8797 146.576 45.432 147.129 45.432H167.631Z" fill="#1C1917"/>
</svg>
