<svg width="264" height="116" viewBox="0 0 264 116" fill="none" xmlns="http://www.w3.org/2000/svg">
<path d="M45.1507 12.4948V13.6776C43.8098 13.717 42.7844 13.9142 42.0746 14.269C41.4041 14.6239 40.9506 15.1956 40.7139 15.9841C40.4773 16.7727 40.359 17.8964 40.359 19.3552V54.6627C40.1224 54.6627 39.8857 54.6627 39.6491 54.6627C39.4519 54.6627 39.235 54.6627 38.9984 54.6627L14.1524 16.2798V47.5066C14.1524 48.926 14.2707 50.0497 14.5073 50.8777C14.7834 51.6662 15.2961 52.2379 16.0454 52.5928C16.8341 52.9082 17.9976 53.1053 19.5357 53.1842V54.367C18.8258 54.2882 17.899 54.2487 16.7553 54.2487C15.6116 54.2093 14.527 54.1896 13.5016 54.1896C12.5157 54.1896 11.51 54.2093 10.4846 54.2487C9.49865 54.2487 8.67045 54.2882 8 54.367V53.1842C9.3409 53.1053 10.3466 52.9082 11.017 52.5928C11.7269 52.2379 12.2002 51.6662 12.4368 50.8777C12.6734 50.0497 12.7917 48.926 12.7917 47.5066V18.7638C12.7917 17.3049 12.6734 16.2404 12.4368 15.5701C12.2002 14.8604 11.7269 14.3873 11.017 14.1507C10.3466 13.8747 9.3409 13.717 8 13.6776V12.4948C8.67045 12.5342 9.49865 12.5736 10.4846 12.613C11.51 12.6525 12.5157 12.6722 13.5016 12.6722C14.3693 12.6722 15.1975 12.6525 15.9862 12.613C16.775 12.5736 17.4849 12.5342 18.1159 12.4948L38.9984 44.6678V19.3552C38.9984 17.8964 38.8604 16.7727 38.5843 15.9841C38.3477 15.1956 37.835 14.6239 37.0462 14.269C36.2969 13.9142 35.1532 13.717 33.6151 13.6776V12.4948C34.325 12.5342 35.2518 12.5736 36.3955 12.613C37.5786 12.6525 38.6632 12.6722 39.6491 12.6722C40.6745 12.6722 41.6802 12.6525 42.6661 12.613C43.6915 12.5736 44.5197 12.5342 45.1507 12.4948Z" fill="#473C39"/>
<path d="M54.3538 54.781C52.7369 54.781 51.3368 54.4853 50.1537 53.8939C48.9705 53.263 48.0635 52.3956 47.4324 51.2917C46.8409 50.1877 46.5451 48.9063 46.5451 47.4475C46.5451 45.7126 46.9395 44.2932 47.7282 43.1893C48.5564 42.0853 49.6015 41.1982 50.8636 40.5279C52.1256 39.8576 53.4468 39.3056 54.8271 38.8719C56.2469 38.3988 57.5878 37.9651 58.8498 37.5708C60.1118 37.1371 61.1372 36.6443 61.926 36.0923C62.7542 35.5403 63.1683 34.8109 63.1683 33.904V30.2372C63.1683 28.5813 62.9119 27.3196 62.3992 26.4522C61.926 25.5848 61.2752 25.0131 60.447 24.7371C59.6188 24.4217 58.692 24.2639 57.6666 24.2639C56.6807 24.2639 55.6159 24.4019 54.4722 24.6779C53.3679 24.9539 52.4805 25.5256 51.8101 26.393C52.5594 26.5508 53.2101 26.945 53.7623 27.5759C54.3144 28.2067 54.5905 29.015 54.5905 30.0007C54.5905 30.9864 54.275 31.7749 53.644 32.3663C53.0129 32.9183 52.2045 33.1943 51.2185 33.1943C50.0748 33.1943 49.2269 32.8395 48.6747 32.1298C48.1621 31.3806 47.9057 30.5527 47.9057 29.6458C47.9057 28.6207 48.1621 27.7927 48.6747 27.1619C49.1874 26.531 49.8382 25.9396 50.6269 25.3876C51.534 24.7568 52.6974 24.2245 54.1172 23.7908C55.5764 23.3177 57.2131 23.0811 59.0273 23.0811C60.6442 23.0811 62.0246 23.2782 63.1683 23.6725C64.312 24.0274 65.2585 24.5596 66.0078 25.2693C67.0332 26.2156 67.7037 27.3787 68.0192 28.7587C68.3347 30.0992 68.4924 31.7158 68.4924 33.6083V50.0497C68.4924 51.0354 68.6305 51.7451 68.9065 52.1788C69.222 52.6125 69.6953 52.8293 70.3263 52.8293C70.7601 52.8293 71.1742 52.7308 71.5686 52.5336C71.963 52.3365 72.4362 52.0211 72.9884 51.5874L73.6391 52.5928C72.8109 53.2236 72.0221 53.7559 71.2728 54.1896C70.5235 54.5839 69.5178 54.781 68.2558 54.781C67.1121 54.781 66.1656 54.5839 65.4162 54.1896C64.6669 53.7953 64.0951 53.2236 63.7007 52.4745C63.3457 51.6859 63.1683 50.7002 63.1683 49.5174C62.1034 51.2917 60.8217 52.6125 59.323 53.4799C57.8638 54.3473 56.2074 54.781 54.3538 54.781ZM56.4835 52.4153C57.785 52.4153 58.9878 52.0408 60.0921 51.2917C61.2358 50.5425 62.2612 49.4188 63.1683 47.9206V36.3288C62.695 36.9991 62.0048 37.5708 61.0978 38.0439C60.1907 38.4776 59.2047 38.9311 58.1399 39.4042C57.0751 39.8379 56.0497 40.3702 55.0637 41.001C54.1172 41.5924 53.3284 42.381 52.6974 43.3667C52.0664 44.3524 51.7509 45.6338 51.7509 47.2109C51.7509 48.788 52.165 50.0497 52.9932 50.9959C53.8609 51.9422 55.0243 52.4153 56.4835 52.4153Z" fill="#473C39"/>
<path d="M80.3858 9.12369C81.4112 9.12369 82.2985 9.49825 83.0479 10.2474C83.7972 10.9965 84.1719 11.8836 84.1719 12.9088C84.1719 13.9339 83.7972 14.821 83.0479 15.5701C82.2985 16.3193 81.4112 16.6938 80.3858 16.6938C79.3604 16.6938 78.473 16.3193 77.7237 15.5701C76.9744 14.821 76.5997 13.9339 76.5997 12.9088C76.5997 11.8836 76.9744 10.9965 77.7237 10.2474C78.473 9.49825 79.3604 9.12369 80.3858 9.12369ZM83.462 23.2585V48.8668C83.462 50.5228 83.7972 51.6465 84.4676 52.2379C85.1775 52.8293 86.3409 53.125 87.9579 53.125V54.367C87.2875 54.3276 86.2621 54.2882 84.8817 54.2487C83.5408 54.1699 82.1802 54.1305 80.7999 54.1305C79.459 54.1305 78.0984 54.1699 76.718 54.2487C75.3377 54.2882 74.3123 54.3276 73.6419 54.367V53.125C75.2588 53.125 76.4025 52.8293 77.073 52.2379C77.7829 51.6465 78.1378 50.5228 78.1378 48.8668V30.3555C78.1378 28.5813 77.8223 27.2802 77.1913 26.4522C76.5603 25.5848 75.3771 25.1511 73.6419 25.1511V23.9091C74.9039 24.0274 76.1265 24.0865 77.3096 24.0865C78.4533 24.0865 79.5379 24.0274 80.5633 23.9091C81.6281 23.7514 82.5943 23.5345 83.462 23.2585Z" fill="#473C39"/>
<path d="M98.6044 8V48.8668C98.6044 50.5228 98.9396 51.6465 99.61 52.2379C100.32 52.8293 101.483 53.125 103.1 53.125V54.367C102.43 54.3276 101.404 54.2882 100.024 54.2487C98.6832 54.1699 97.3226 54.1305 95.9423 54.1305C94.6014 54.1305 93.2408 54.1699 91.8604 54.2487C90.4801 54.2882 89.4547 54.3276 88.7843 54.367V53.125C90.4012 53.125 91.5449 52.8293 92.2154 52.2379C92.9253 51.6465 93.2802 50.5228 93.2802 48.8668V15.097C93.2802 13.3227 92.9647 12.0216 92.3337 11.1936C91.7027 10.3262 90.5195 9.89253 88.7843 9.89253V8.65056C90.0463 8.76884 91.2689 8.82798 92.452 8.82798C93.5957 8.82798 94.6803 8.76884 95.7057 8.65056C96.7705 8.49285 97.7367 8.276 98.6044 8Z" fill="#473C39"/>
<path d="M20.6596 64.6492C22.6316 64.6492 24.1302 64.8858 25.1556 65.3589C26.181 65.7926 27.0881 66.2855 27.8768 66.8374C28.3501 67.1134 28.7247 67.3303 29.0008 67.488C29.3163 67.6063 29.6121 67.6654 29.8882 67.6654C30.2826 67.6654 30.5586 67.4486 30.7164 67.0149C30.9136 66.5812 31.0713 65.9306 31.1896 65.0632H32.5502C32.5108 65.7335 32.4517 66.5417 32.3728 67.488C32.3333 68.3948 32.2939 69.6171 32.2545 71.1548C32.2545 72.653 32.2545 74.6441 32.2545 77.1281H30.8938C30.7755 75.2356 30.3614 73.4219 29.6515 71.6871C28.9417 69.9522 27.8965 68.5328 26.5162 67.4289C25.1753 66.3249 23.4006 65.7729 21.1921 65.7729C19.1018 65.7729 17.3666 66.4037 15.9862 67.6654C14.6453 68.9271 13.9749 70.5831 13.9749 72.6333C13.9749 74.4076 14.4284 75.9058 15.3355 77.1281C16.2426 78.3109 17.4454 79.3952 18.9441 80.3809C20.4822 81.3271 22.1386 82.3523 23.9133 83.4562C25.9641 84.7179 27.7782 85.9796 29.3558 87.2413C30.9727 88.4636 32.2347 89.8238 33.1418 91.3221C34.0883 92.8203 34.5616 94.634 34.5616 96.7631C34.5616 99.2865 33.9897 101.376 32.846 103.032C31.7023 104.688 30.184 105.93 28.2909 106.758C26.3979 107.586 24.3077 108 22.0203 108C19.93 108 18.2736 107.763 17.0511 107.29C15.8285 106.817 14.7834 106.324 13.9157 105.812C13.0481 105.26 12.3776 104.984 11.9044 104.984C11.51 104.984 11.2142 105.201 11.017 105.634C10.8593 106.068 10.7212 106.719 10.6029 107.586H9.2423C9.32118 106.758 9.36062 105.792 9.36062 104.688C9.40005 103.545 9.41977 102.066 9.41977 100.252C9.45921 98.4388 9.47893 96.152 9.47893 93.392H10.8395C10.9973 95.7577 11.4311 97.9656 12.141 100.016C12.8903 102.066 14.0143 103.722 15.513 104.984C17.0511 106.206 19.0821 106.817 21.6062 106.817C22.9076 106.817 24.1302 106.561 25.2739 106.048C26.4571 105.496 27.4233 104.649 28.1726 103.505C28.9219 102.322 29.2966 100.804 29.2966 98.9513C29.2966 97.3348 28.9022 95.9351 28.1135 94.7523C27.3641 93.53 26.2993 92.4063 24.919 91.3812C23.5386 90.3167 21.9217 89.2324 20.0681 88.1284C18.2145 86.985 16.4792 85.8219 14.8622 84.6391C13.2453 83.4562 11.9438 82.096 10.9579 80.5583C10.0113 78.9812 9.53809 77.0887 9.53809 74.8807C9.53809 72.5545 10.0508 70.6422 11.0762 69.144C12.141 67.6063 13.5213 66.4826 15.2172 65.7729C16.913 65.0238 18.7272 64.6492 20.6596 64.6492Z" fill="#473C39"/>
<path d="M46.9278 66.8966V76.7732H55.683V77.9561H46.9278V100.844C46.9278 102.697 47.263 103.998 47.9334 104.747C48.6039 105.496 49.5307 105.871 50.7138 105.871C51.897 105.871 52.9224 105.398 53.79 104.452C54.6576 103.466 55.407 101.83 56.038 99.5428L57.2211 99.8385C56.8267 102.125 56.038 104.057 54.8548 105.634C53.7111 107.211 51.9364 108 49.5307 108C48.1898 108 47.0855 107.823 46.2179 107.468C45.3502 107.152 44.5812 106.679 43.9107 106.048C43.0431 105.141 42.4318 104.057 42.0769 102.796C41.7614 101.534 41.6036 99.8582 41.6036 97.7685V77.9561H35.9245V76.7732H41.6036V67.7246C42.5896 67.6851 43.5361 67.6063 44.4432 67.488C45.3502 67.3697 46.1784 67.1726 46.9278 66.8966Z" fill="#473C39"/>
<path d="M64.9421 107.586C63.3251 107.586 61.925 107.29 60.7419 106.699C59.5588 106.068 58.6517 105.201 58.0207 104.097C57.4291 102.993 57.1333 101.711 57.1333 100.252C57.1333 98.5176 57.5277 97.0982 58.3164 95.9943C59.1447 94.8903 60.1898 94.0032 61.4518 93.3329C62.7138 92.6626 64.035 92.1106 65.4153 91.6769C66.8351 91.2038 68.176 90.7701 69.438 90.3758C70.7 89.9421 71.7254 89.4493 72.5142 88.8973C73.3424 88.3453 73.7565 87.6159 73.7565 86.709V83.0422C73.7565 81.3863 73.5001 80.1246 72.9874 79.2572C72.5142 78.3898 71.8635 77.8181 71.0353 77.5421C70.207 77.2267 69.2803 77.0689 68.2549 77.0689C67.2689 77.0689 66.2041 77.2069 65.0604 77.4829C63.9561 77.7589 63.0687 78.3306 62.3983 79.198C63.1476 79.3558 63.7984 79.75 64.3505 80.3809C64.9026 81.0117 65.1787 81.82 65.1787 82.8057C65.1787 83.7914 64.8632 84.5799 64.2322 85.1713C63.6012 85.7233 62.7927 85.9993 61.8067 85.9993C60.663 85.9993 59.8151 85.6445 59.263 84.9348C58.7503 84.1857 58.4939 83.3577 58.4939 82.4508C58.4939 81.4257 58.7503 80.5977 59.263 79.9669C59.7757 79.336 60.4264 78.7446 61.2152 78.1926C62.1222 77.5618 63.2857 77.0295 64.7054 76.5958C66.1646 76.1227 67.8013 75.8861 69.6155 75.8861C71.2324 75.8861 72.6128 76.0833 73.7565 76.4775C74.9002 76.8324 75.8467 77.3646 76.596 78.0743C77.6214 79.0206 78.2919 80.1837 78.6074 81.5637C78.9229 82.9042 79.0806 84.5208 79.0806 86.4133V102.855C79.0806 103.84 79.2187 104.55 79.4947 104.984C79.8102 105.417 80.2835 105.634 80.9145 105.634C81.3483 105.634 81.7624 105.536 82.1568 105.339C82.5512 105.141 83.0245 104.826 83.5766 104.392L84.2273 105.398C83.3991 106.029 82.6103 106.561 81.861 106.995C81.1117 107.389 80.106 107.586 78.844 107.586C77.7003 107.586 76.7538 107.389 76.0045 106.995C75.2551 106.6 74.6833 106.029 74.2889 105.279C73.934 104.491 73.7565 103.505 73.7565 102.322C72.6917 104.097 71.4099 105.417 69.9113 106.285C68.4521 107.152 66.7956 107.586 64.9421 107.586ZM67.0717 105.22C68.3732 105.22 69.576 104.846 70.6803 104.097C71.824 103.348 72.8494 102.224 73.7565 100.726V89.1338C73.2832 89.8041 72.5931 90.3758 71.686 90.8489C70.7789 91.2826 69.7929 91.7361 68.7281 92.2092C67.6633 92.6429 66.6379 93.1752 65.6519 93.806C64.7054 94.3974 63.9167 95.186 63.2857 96.1717C62.6546 97.1574 62.3391 98.4388 62.3391 100.016C62.3391 101.593 62.7532 102.855 63.5814 103.801C64.4491 104.747 65.6125 105.22 67.0717 105.22Z" fill="#473C39"/>
<path d="M104.107 75.8861C105.606 75.8861 106.848 76.0833 107.834 76.4775C108.859 76.8718 109.707 77.4238 110.378 78.1335C111.127 78.922 111.659 79.9077 111.975 81.0906C112.29 82.2734 112.448 83.8702 112.448 85.881V101.672C112.448 103.328 112.783 104.452 113.454 105.043C114.164 105.634 115.327 105.93 116.944 105.93V107.172C116.274 107.133 115.248 107.093 113.868 107.054C112.488 106.975 111.147 106.935 109.845 106.935C108.544 106.935 107.262 106.975 106 107.054C104.777 107.093 103.851 107.133 103.22 107.172V105.93C104.639 105.93 105.645 105.634 106.237 105.043C106.828 104.452 107.124 103.328 107.124 101.672V84.5799C107.124 83.3577 107.025 82.234 106.828 81.2089C106.631 80.1837 106.177 79.3558 105.468 78.7249C104.797 78.0941 103.752 77.7786 102.332 77.7786C100.676 77.7786 99.2166 78.2518 97.9546 79.198C96.732 80.1443 95.7657 81.4454 95.0559 83.1014C94.3854 84.7179 94.0502 86.5316 94.0502 88.5424V101.672C94.0502 103.328 94.346 104.452 94.9375 105.043C95.5291 105.634 96.5348 105.93 97.9546 105.93V107.172C97.3236 107.133 96.377 107.093 95.115 107.054C93.8924 106.975 92.6304 106.935 91.329 106.935C90.0275 106.935 88.6866 106.975 87.3063 107.054C85.9259 107.093 84.9005 107.133 84.2301 107.172V105.93C85.847 105.93 86.9908 105.634 87.6612 105.043C88.3711 104.452 88.726 103.328 88.726 101.672V83.1605C88.726 81.3863 88.4105 80.0852 87.7795 79.2572C87.1485 78.3898 85.9654 77.9561 84.2301 77.9561V76.7141C85.4921 76.8324 86.7147 76.8915 87.8978 76.8915C89.0415 76.8915 90.1261 76.8324 91.1515 76.7141C92.2163 76.5564 93.1825 76.3395 94.0502 76.0635V83.0422C95.0756 80.3612 96.4953 78.5081 98.3095 77.4829C100.163 76.4184 102.096 75.8861 104.107 75.8861Z" fill="#473C39"/>
<path d="M144.67 60.805V100.726C144.67 102.5 144.985 103.821 145.616 104.688C146.287 105.516 147.47 105.93 149.166 105.93V107.172C147.943 107.054 146.721 106.995 145.498 106.995C144.354 106.995 143.25 107.054 142.185 107.172C141.16 107.29 140.213 107.507 139.346 107.823V67.902C139.346 66.1277 139.03 64.8266 138.399 63.9987C137.768 63.1312 136.585 62.6975 134.85 62.6975V61.4556C136.112 61.5738 137.334 61.633 138.517 61.633C139.661 61.633 140.746 61.5738 141.771 61.4556C142.836 61.2978 143.802 61.081 144.67 60.805ZM132.247 75.8861C133.982 75.8861 135.599 76.3001 137.098 77.1281C138.636 77.9561 139.661 79.3755 140.174 81.3863L139.405 81.9777C138.853 80.3217 137.985 79.1192 136.802 78.3701C135.658 77.6209 134.298 77.2464 132.72 77.2464C130.393 77.2464 128.441 78.4489 126.863 80.854C125.325 83.2591 124.576 86.9653 124.616 91.9726C124.616 95.1663 124.911 97.8276 125.503 99.9567C126.134 102.046 127.041 103.624 128.224 104.688C129.447 105.713 130.926 106.226 132.661 106.226C134.317 106.226 135.816 105.516 137.157 104.097C138.498 102.677 139.306 100.588 139.582 97.8276L140.292 98.6556C139.977 101.652 139.01 103.959 137.393 105.575C135.816 107.192 133.667 108 130.945 108C128.5 108 126.351 107.409 124.497 106.226C122.683 105.043 121.283 103.269 120.297 100.903C119.351 98.5373 118.877 95.5606 118.877 91.9726C118.877 88.3847 119.489 85.4079 120.711 83.0422C121.973 80.6372 123.61 78.8432 125.621 77.6604C127.672 76.4775 129.881 75.8861 132.247 75.8861Z" fill="#473C39"/>
<path d="M158.752 107.586C157.135 107.586 155.735 107.29 154.552 106.699C153.369 106.068 152.462 105.201 151.831 104.097C151.239 102.993 150.944 101.711 150.944 100.252C150.944 98.5176 151.338 97.0982 152.127 95.9943C152.955 94.8903 154 94.0032 155.262 93.3329C156.524 92.6626 157.845 92.1106 159.226 91.6769C160.645 91.2038 161.986 90.7701 163.248 90.3758C164.51 89.9421 165.536 89.4493 166.325 88.8973C167.153 88.3453 167.567 87.6159 167.567 86.709V83.0422C167.567 81.3863 167.311 80.1246 166.798 79.2572C166.325 78.3898 165.674 77.8181 164.846 77.5421C164.017 77.2267 163.091 77.0689 162.065 77.0689C161.079 77.0689 160.014 77.2069 158.871 77.4829C157.767 77.7589 156.879 78.3306 156.209 79.198C156.958 79.3558 157.609 79.75 158.161 80.3809C158.713 81.0117 158.989 81.82 158.989 82.8057C158.989 83.7914 158.674 84.5799 158.043 85.1713C157.412 85.7233 156.603 85.9993 155.617 85.9993C154.473 85.9993 153.626 85.6445 153.073 84.9348C152.561 84.1857 152.304 83.3577 152.304 82.4508C152.304 81.4257 152.561 80.5977 153.073 79.9669C153.586 79.336 154.237 78.7446 155.026 78.1926C155.933 77.5618 157.096 77.0295 158.516 76.5958C159.975 76.1227 161.612 75.8861 163.426 75.8861C165.043 75.8861 166.423 76.0833 167.567 76.4775C168.711 76.8324 169.657 77.3646 170.406 78.0743C171.432 79.0206 172.102 80.1837 172.418 81.5637C172.733 82.9042 172.891 84.5208 172.891 86.4133V102.855C172.891 103.84 173.029 104.55 173.305 104.984C173.621 105.417 174.094 105.634 174.725 105.634C175.159 105.634 175.573 105.536 175.967 105.339C176.362 105.141 176.835 104.826 177.387 104.392L178.038 105.398C177.21 106.029 176.421 106.561 175.671 106.995C174.922 107.389 173.916 107.586 172.654 107.586C171.511 107.586 170.564 107.389 169.815 106.995C169.066 106.6 168.494 106.029 168.099 105.279C167.744 104.491 167.567 103.505 167.567 102.322C166.502 104.097 165.22 105.417 163.722 106.285C162.262 107.152 160.606 107.586 158.752 107.586ZM160.882 105.22C162.184 105.22 163.386 104.846 164.491 104.097C165.634 103.348 166.66 102.224 167.567 100.726V89.1338C167.094 89.8041 166.403 90.3758 165.496 90.8489C164.589 91.2826 163.603 91.7361 162.539 92.2092C161.474 92.6429 160.448 93.1752 159.462 93.806C158.516 94.3974 157.727 95.186 157.096 96.1717C156.465 97.1574 156.15 98.4388 156.15 100.016C156.15 101.593 156.564 102.855 157.392 103.801C158.259 104.747 159.423 105.22 160.882 105.22Z" fill="#473C39"/>
<path d="M196.438 75.8861C197.503 75.8861 198.43 76.103 199.219 76.5367C200.047 76.9704 200.678 77.5421 201.112 78.2518C201.585 78.922 201.822 79.6909 201.822 80.5583C201.822 81.544 201.506 82.4114 200.875 83.1605C200.284 83.9097 199.475 84.2842 198.45 84.2842C197.622 84.2842 196.892 84.0279 196.261 83.5154C195.63 82.9634 195.314 82.1945 195.314 81.2089C195.314 80.4597 195.512 79.8289 195.906 79.3163C196.34 78.7643 196.813 78.3306 197.326 78.0152C197.05 77.6209 196.636 77.4238 196.083 77.4238C194.861 77.4238 193.737 77.7984 192.711 78.5475C191.686 79.2572 190.818 80.1837 190.109 81.3271C189.399 82.4705 188.847 83.6928 188.452 84.9939C188.058 86.2556 187.861 87.4384 187.861 88.5424V101.08C187.861 103.012 188.413 104.314 189.517 104.984C190.661 105.615 192.199 105.93 194.131 105.93V107.172C193.224 107.133 191.942 107.093 190.286 107.054C188.63 106.975 186.875 106.935 185.021 106.935C183.68 106.935 182.339 106.975 180.998 107.054C179.697 107.093 178.711 107.133 178.04 107.172V105.93C179.657 105.93 180.801 105.634 181.472 105.043C182.181 104.452 182.536 103.328 182.536 101.672V83.1605C182.536 81.3863 182.221 80.0852 181.59 79.2572C180.959 78.3898 179.776 77.9561 178.04 77.9561V76.7141C179.303 76.8324 180.525 76.8915 181.708 76.8915C182.852 76.8915 183.937 76.8324 184.962 76.7141C186.027 76.5564 186.993 76.3395 187.861 76.0635V83.4562C188.294 82.3128 188.906 81.1694 189.694 80.026C190.523 78.8432 191.509 77.8575 192.652 77.0689C193.796 76.2804 195.058 75.8861 196.438 75.8861Z" fill="#473C39"/>
<path d="M228.37 60.805V100.726C228.37 102.5 228.686 103.821 229.317 104.688C229.987 105.516 231.17 105.93 232.866 105.93V107.172C231.644 107.054 230.421 106.995 229.199 106.995C228.055 106.995 226.951 107.054 225.886 107.172C224.86 107.29 223.914 107.507 223.046 107.823V67.902C223.046 66.1277 222.731 64.8266 222.1 63.9987C221.469 63.1312 220.286 62.6975 218.55 62.6975V61.4556C219.812 61.5738 221.035 61.633 222.218 61.633C223.362 61.633 224.446 61.5738 225.472 61.4556C226.536 61.2978 227.503 61.081 228.37 60.805ZM215.947 75.8861C217.683 75.8861 219.3 76.3001 220.798 77.1281C222.336 77.9561 223.362 79.3755 223.874 81.3863L223.105 81.9777C222.553 80.3217 221.686 79.1192 220.502 78.3701C219.359 77.6209 217.998 77.2464 216.421 77.2464C214.094 77.2464 212.142 78.4489 210.564 80.854C209.026 83.2591 208.277 86.9653 208.316 91.9726C208.316 95.1663 208.612 97.8276 209.203 99.9567C209.834 102.046 210.741 103.624 211.925 104.688C213.147 105.713 214.626 106.226 216.361 106.226C218.018 106.226 219.516 105.516 220.857 104.097C222.198 102.677 223.007 100.588 223.283 97.8276L223.993 98.6556C223.677 101.652 222.711 103.959 221.094 105.575C219.516 107.192 217.367 108 214.646 108C212.201 108 210.051 107.409 208.198 106.226C206.384 105.043 204.984 103.269 203.998 100.903C203.051 98.5373 202.578 95.5606 202.578 91.9726C202.578 88.3847 203.189 85.4079 204.412 83.0422C205.674 80.6372 207.31 78.8432 209.322 77.6604C211.372 76.4775 213.581 75.8861 215.947 75.8861Z" fill="#473C39"/>
<path d="M244.642 75.8861C246.219 75.8861 247.56 76.1424 248.665 76.655C249.769 77.1675 250.577 77.6406 251.09 78.0743C252.391 79.1389 253.18 78.4292 253.456 75.9453H254.817C254.738 77.0492 254.679 78.3701 254.639 79.9077C254.6 81.406 254.58 83.4365 254.58 85.9993H253.22C252.983 84.5405 252.569 83.1211 251.977 81.7411C251.425 80.3612 250.597 79.2375 249.493 78.3701C248.388 77.4632 246.949 77.0098 245.174 77.0098C243.794 77.0098 242.63 77.4041 241.684 78.1926C240.777 78.9418 240.323 80.0655 240.323 81.5637C240.323 82.7465 240.678 83.7717 241.388 84.6391C242.098 85.4671 243.025 86.2556 244.169 87.0047C245.312 87.7144 246.555 88.503 247.895 89.3704C249.394 90.3167 250.755 91.2826 251.977 92.2683C253.2 93.254 254.166 94.3383 254.876 95.5211C255.625 96.704 256 98.1036 256 99.7202C256 101.534 255.527 103.052 254.58 104.274C253.634 105.496 252.391 106.423 250.853 107.054C249.355 107.685 247.698 108 245.884 108C245.016 108 244.188 107.921 243.4 107.763C242.65 107.645 241.921 107.448 241.211 107.172C240.816 106.975 240.402 106.738 239.968 106.462C239.574 106.186 239.18 105.891 238.785 105.575C238.391 105.26 238.036 105.279 237.72 105.634C237.405 105.95 237.168 106.6 237.011 107.586H235.65C235.729 106.324 235.788 104.787 235.827 102.973C235.867 101.159 235.887 98.7542 235.887 95.7577H237.247C237.523 97.9656 237.918 99.8976 238.43 101.554C238.943 103.21 239.751 104.511 240.856 105.457C241.96 106.364 243.498 106.817 245.47 106.817C246.259 106.817 247.048 106.64 247.836 106.285C248.665 105.93 249.355 105.339 249.907 104.511C250.459 103.683 250.735 102.579 250.735 101.199C250.735 99.4639 250.104 98.0445 248.842 96.9405C247.58 95.8365 245.983 94.6734 244.05 93.4512C242.63 92.5443 241.29 91.6375 240.028 90.7307C238.805 89.8238 237.799 88.7987 237.011 87.6553C236.261 86.5119 235.887 85.1319 235.887 83.5154C235.887 81.7411 236.281 80.302 237.07 79.198C237.898 78.0546 238.982 77.2267 240.323 76.7141C241.664 76.1621 243.104 75.8861 244.642 75.8861Z" fill="#473C39"/>
</svg>
